STARTFONT 2.1
FONT -Adobe-Helvetica-Bold-O-Normal--8-80-75-75-P-50-ISO8859-2
SIZE 8 75 75
FONTBOUNDINGBOX 13 11 -2 -2
COMMENT $XConsortium: helvBO08.bdf,v 1.13 95/01/26 18:01:56 gildea Exp $
COMMENT 
COMMENT +
COMMENT  Copyright 1984-1989, 1994 Adobe Systems Incorporated.
COMMENT  Copyright 1988, 1994 Digital Equipment Corporation.
COMMENT
COMMENT  Adobe is a trademark of Adobe Systems Incorporated which may be
COMMENT  registered in certain jurisdictions.
COMMENT  Permission to use these trademarks is hereby granted only in
COMMENT  association with the images described in this file.
COMMENT
COMMENT  Permission to use, copy, modify, distribute and sell this software
COMMENT  and its documentation for any purpose and without fee is hereby
COMMENT  granted, provided that the above copyright notices appear in all
COMMENT  copies and that both those copyright notices and this permission
COMMENT  notice appear in supporting documentation, and that the names of
COMMENT  Adobe Systems and Digital Equipment Corporation not be used in
COMMENT  advertising or publicity pertaining to distribution of the software
COMMENT  without specific, written prior permission.  Adobe Systems and
COMMENT  Digital Equipment Corporation make no representations about the
COMMENT  suitability of this software for any purpose.  It is provided "as
COMMENT  is" without express or implied warranty.
COMMENT -
COMMENT  
COMMENT  Translation to ISO8859-2 by Cub Soft;  Petr.Kolar@vslib.cz
COMMENT  
STARTPROPERTIES 28
FOUNDRY "Adobe"
FAMILY_NAME "Helvetica"
WEIGHT_NAME "Bold"
SLANT "O"
SETWIDTH_NAME "Normal"
ADD_STYLE_NAME ""
PIXEL_SIZE 8
POINT_SIZE 80
RESOLUTION_X 75
RESOLUTION_Y 75
SPACING "P"
AVERAGE_WIDTH 50
CHARSET_REGISTRY "ISO8859"
CHARSET_ENCODING "2"
CAP_HEIGHT 6
X_HEIGHT 5
FONT_ASCENT 8
FONT_DESCENT 2
FACE_NAME "Helvetica Bold Oblique"

STARTCHAR space
ENCODING 32
SWIDTH 278 0
DWIDTH 2 0
BBX 1 1 0 0
BITMAP
00
ENDCHAR
STARTCHAR exclam
ENCODING 33
SWIDTH 333 0
DWIDTH 3 0
BBX 3 6 0 0
BITMAP
20
60
60
40
00
80
ENDCHAR
STARTCHAR quotedbl
ENCODING 34
SWIDTH 474 0
DWIDTH 5 0
BBX 4 2 1 4
BITMAP
50
a0
ENDCHAR
STARTCHAR numbersign
ENCODING 35
SWIDTH 556 0
DWIDTH 6 0
BBX 5 6 1 0
BITMAP
50
f8
50
f0
a0
a0
ENDCHAR
STARTCHAR dollar
ENCODING 36
SWIDTH 556 0
DWIDTH 5 0
BBX 5 7 0 -1
BITMAP
10
38
60
30
b0
e0
40
ENDCHAR
STARTCHAR percent
ENCODING 37
SWIDTH 889 0
DWIDTH 7 0
BBX 6 6 1 0
BITMAP
64
a8
d0
2c
54
98
ENDCHAR
STARTCHAR ampersand
ENCODING 38
SWIDTH 722 0
DWIDTH 6 0
BBX 6 6 0 0
BITMAP
10
28
30
74
d8
6c
ENDCHAR
STARTCHAR apostrophe
ENCODING 39
SWIDTH 278 0
DWIDTH 2 0
BBX 2 3 0 3
BITMAP
40
40
80
ENDCHAR
STARTCHAR parenleft
ENCODING 40
SWIDTH 333 0
DWIDTH 4 0
BBX 4 8 0 -2
BITMAP
30
60
60
c0
c0
c0
c0
60
ENDCHAR
STARTCHAR parenright
ENCODING 41
SWIDTH 333 0
DWIDTH 4 0
BBX 4 8 0 -2
BITMAP
60
30
30
30
60
60
c0
80
ENDCHAR
STARTCHAR asterisk
ENCODING 42
SWIDTH 389 0
DWIDTH 5 0
BBX 3 3 2 3
BITMAP
40
e0
40
ENDCHAR
STARTCHAR plus
ENCODING 43
SWIDTH 584 0
DWIDTH 5 0
BBX 4 5 0 0
BITMAP
20
20
f0
40
40
ENDCHAR
STARTCHAR comma
ENCODING 44
SWIDTH 278 0
DWIDTH 2 0
BBX 2 3 -1 -1
BITMAP
40
40
80
ENDCHAR
STARTCHAR minus
ENCODING 45
SWIDTH 584 0
DWIDTH 6 0
BBX 4 1 1 2
BITMAP
f0
ENDCHAR
STARTCHAR period
ENCODING 46
SWIDTH 278 0
DWIDTH 2 0
BBX 1 2 0 0
BITMAP
80
80
ENDCHAR
STARTCHAR slash
ENCODING 47
SWIDTH 278 0
DWIDTH 4 0
BBX 3 6 1 0
BITMAP
20
20
40
40
80
80
ENDCHAR
STARTCHAR zero
ENCODING 48
SWIDTH 556 0
DWIDTH 5 0
BBX 5 6 0 0
BITMAP
30
78
58
d8
f0
60
ENDCHAR
STARTCHAR one
ENCODING 49
SWIDTH 556 0
DWIDTH 5 0
BBX 3 6 1 0
BITMAP
20
e0
60
60
c0
c0
ENDCHAR
STARTCHAR two
ENCODING 50
SWIDTH 556 0
DWIDTH 5 0
BBX 5 6 0 0
BITMAP
30
58
18
70
c0
f0
ENDCHAR
STARTCHAR three
ENCODING 51
SWIDTH 556 0
DWIDTH 5 0
BBX 5 6 0 0
BITMAP
30
58
38
10
b0
60
ENDCHAR
STARTCHAR four
ENCODING 52
SWIDTH 556 0
DWIDTH 5 0
BBX 5 6 0 0
BITMAP
18
38
50
f8
20
20
ENDCHAR
STARTCHAR five
ENCODING 53
SWIDTH 556 0
DWIDTH 5 0
BBX 5 6 0 0
BITMAP
78
60
70
10
b0
60
ENDCHAR
STARTCHAR six
ENCODING 54
SWIDTH 556 0
DWIDTH 5 0
BBX 5 6 0 0
BITMAP
30
68
60
f0
d0
60
ENDCHAR
STARTCHAR seven
ENCODING 55
SWIDTH 556 0
DWIDTH 5 0
BBX 4 6 1 0
BITMAP
f0
30
20
60
c0
c0
ENDCHAR
STARTCHAR eight
ENCODING 56
SWIDTH 556 0
DWIDTH 5 0
BBX 5 6 0 0
BITMAP
30
58
78
f0
d0
60
ENDCHAR
STARTCHAR nine
ENCODING 57
SWIDTH 556 0
DWIDTH 5 0
BBX 5 6 0 0
BITMAP
30
58
78
18
b0
60
ENDCHAR
STARTCHAR colon
ENCODING 58
SWIDTH 333 0
DWIDTH 2 0
BBX 2 5 0 0
BITMAP
40
40
00
80
80
ENDCHAR
STARTCHAR semicolon
ENCODING 59
SWIDTH 333 0
DWIDTH 2 0
BBX 3 6 -1 -1
BITMAP
20
20
00
40
40
80
ENDCHAR
STARTCHAR less
ENCODING 60
SWIDTH 584 0
DWIDTH 5 0
BBX 4 4 1 1
BITMAP
30
60
c0
60
ENDCHAR
STARTCHAR equal
ENCODING 61
SWIDTH 584 0
DWIDTH 5 0
BBX 5 3 0 1
BITMAP
78
00
f0
ENDCHAR
STARTCHAR greater
ENCODING 62
SWIDTH 584 0
DWIDTH 6 0
BBX 4 4 1 1
BITMAP
60
30
60
c0
ENDCHAR
STARTCHAR question
ENCODING 63
SWIDTH 611 0
DWIDTH 5 0
BBX 4 6 1 0
BITMAP
e0
30
e0
80
00
80
ENDCHAR
STARTCHAR at
ENCODING 64
SWIDTH 975 0
DWIDTH 8 0
BBX 7 7 0 -1
BITMAP
3c
62
5a
aa
bc
c0
78
ENDCHAR
STARTCHAR A
ENCODING 65
SWIDTH 722 0
DWIDTH 6 0
BBX 6 6 -1 0
BITMAP
08
18
2c
7c
cc
cc
ENDCHAR
STARTCHAR B
ENCODING 66
SWIDTH 722 0
DWIDTH 6 0
BBX 6 6 0 0
BITMAP
78
6c
78
cc
d8
f0
ENDCHAR
STARTCHAR C
ENCODING 67
SWIDTH 722 0
DWIDTH 6 0
BBX 6 6 0 0
BITMAP
3c
6c
c0
c8
d8
70
ENDCHAR
STARTCHAR D
ENCODING 68
SWIDTH 722 0
DWIDTH 6 0
BBX 6 6 0 0
BITMAP
78
64
64
cc
d8
f0
ENDCHAR
STARTCHAR E
ENCODING 69
SWIDTH 667 0
DWIDTH 5 0
BBX 6 6 0 0
BITMAP
7c
60
78
c0
c0
f0
ENDCHAR
STARTCHAR F
ENCODING 70
SWIDTH 611 0
DWIDTH 4 0
BBX 5 6 0 0
BITMAP
78
60
70
c0
c0
c0
ENDCHAR
STARTCHAR G
ENCODING 71
SWIDTH 778 0
DWIDTH 6 0
BBX 6 6 0 0
BITMAP
3c
60
c0
dc
d8
78
ENDCHAR
STARTCHAR H
ENCODING 72
SWIDTH 722 0
DWIDTH 6 0
BBX 6 6 0 0
BITMAP
6c
6c
78
78
d8
d8
ENDCHAR
STARTCHAR I
ENCODING 73
SWIDTH 278 0
DWIDTH 2 0
BBX 2 6 0 0
BITMAP
40
40
40
80
80
80
ENDCHAR
STARTCHAR J
ENCODING 74
SWIDTH 556 0
DWIDTH 5 0
BBX 6 6 0 0
BITMAP
3c
18
18
d8
b0
60
ENDCHAR
STARTCHAR K
ENCODING 75
SWIDTH 722 0
DWIDTH 6 0
BBX 6 6 0 0
BITMAP
6c
68
70
f0
d8
d8
ENDCHAR
STARTCHAR L
ENCODING 76
SWIDTH 611 0
DWIDTH 5 0
BBX 4 6 0 0
BITMAP
60
60
60
c0
c0
f0
ENDCHAR
STARTCHAR M
ENCODING 77
SWIDTH 833 0
DWIDTH 8 0
BBX 9 6 0 0
BITMAP
6380
6300
7700
fe00
d600
d600
ENDCHAR
STARTCHAR N
ENCODING 78
SWIDTH 722 0
DWIDTH 6 0
BBX 7 6 0 0
BITMAP
66
64
74
f8
c8
c8
ENDCHAR
STARTCHAR O
ENCODING 79
SWIDTH 778 0
DWIDTH 6 0
BBX 6 6 0 0
BITMAP
38
6c
cc
cc
d8
70
ENDCHAR
STARTCHAR P
ENCODING 80
SWIDTH 667 0
DWIDTH 6 0
BBX 6 6 0 0
BITMAP
78
64
6c
f8
c0
c0
ENDCHAR
STARTCHAR Q
ENCODING 81
SWIDTH 778 0
DWIDTH 6 0
BBX 6 7 0 -1
BITMAP
38
6c
cc
cc
d8
70
08
ENDCHAR
STARTCHAR R
ENCODING 82
SWIDTH 722 0
DWIDTH 6 0
BBX 6 6 0 0
BITMAP
78
64
78
cc
d8
d8
ENDCHAR
STARTCHAR S
ENCODING 83
SWIDTH 667 0
DWIDTH 6 0
BBX 6 6 0 0
BITMAP
38
6c
70
38
d8
70
ENDCHAR
STARTCHAR T
ENCODING 84
SWIDTH 611 0
DWIDTH 5 0
BBX 5 6 1 0
BITMAP
f8
60
60
e0
c0
c0
ENDCHAR
STARTCHAR U
ENCODING 85
SWIDTH 722 0
DWIDTH 6 0
BBX 6 6 0 0
BITMAP
6c
6c
cc
cc
d8
70
ENDCHAR
STARTCHAR V
ENCODING 86
SWIDTH 667 0
DWIDTH 6 0
BBX 6 6 1 0
BITMAP
cc
c8
d8
d0
f0
60
ENDCHAR
STARTCHAR W
ENCODING 87
SWIDTH 944 0
DWIDTH 8 0
BBX 8 6 1 0
BITMAP
db
da
de
ec
6c
6c
ENDCHAR
STARTCHAR X
ENCODING 88
SWIDTH 667 0
DWIDTH 6 0
BBX 6 6 0 0
BITMAP
6c
78
30
70
d8
d8
ENDCHAR
STARTCHAR Y
ENCODING 89
SWIDTH 667 0
DWIDTH 6 0
BBX 6 6 1 0
BITMAP
cc
d8
70
60
60
60
ENDCHAR
STARTCHAR Z
ENCODING 90
SWIDTH 611 0
DWIDTH 6 0
BBX 6 6 0 0
BITMAP
7c
0c
38
70
c0
f8
ENDCHAR
STARTCHAR bracketleft
ENCODING 91
SWIDTH 333 0
DWIDTH 3 0
BBX 4 8 0 -2
BITMAP
70
60
60
40
40
c0
c0
e0
ENDCHAR
STARTCHAR backslash
ENCODING 92
SWIDTH 278 0
DWIDTH 4 0
BBX 2 6 1 0
BITMAP
80
80
80
40
40
40
ENDCHAR
STARTCHAR bracketright
ENCODING 93
SWIDTH 333 0
DWIDTH 3 0
BBX 4 8 -1 -2
BITMAP
70
30
30
20
20
60
60
e0
ENDCHAR
STARTCHAR asciicircum
ENCODING 94
SWIDTH 584 0
DWIDTH 5 0
BBX 4 3 1 3
BITMAP
30
70
d0
ENDCHAR
STARTCHAR underscore
ENCODING 95
SWIDTH 556 0
DWIDTH 5 0
BBX 4 1 0 -1
BITMAP
f0
ENDCHAR
STARTCHAR grave
ENCODING 96
SWIDTH 333 0
DWIDTH 3 0
BBX 2 2 2 6
BITMAP
80
40
ENDCHAR
STARTCHAR a
ENCODING 97
SWIDTH 556 0
DWIDTH 5 0
BBX 5 5 0 0
BITMAP
70
18
78
d0
f8
ENDCHAR
STARTCHAR b
ENCODING 98
SWIDTH 611 0
DWIDTH 5 0
BBX 5 6 0 0
BITMAP
60
60
70
d8
d8
f0
ENDCHAR
STARTCHAR c
ENCODING 99
SWIDTH 556 0
DWIDTH 4 0
BBX 4 5 0 0
BITMAP
30
70
c0
f0
60
ENDCHAR
STARTCHAR d
ENCODING 100
SWIDTH 611 0
DWIDTH 5 0
BBX 6 6 0 0
BITMAP
0c
38
78
d8
d0
70
ENDCHAR
STARTCHAR e
ENCODING 101
SWIDTH 556 0
DWIDTH 5 0
BBX 5 5 0 0
BITMAP
30
68
f8
c0
70
ENDCHAR
STARTCHAR f
ENCODING 102
SWIDTH 333 0
DWIDTH 2 0
BBX 4 7 0 0
BITMAP
30
60
e0
40
40
80
80
ENDCHAR
STARTCHAR g
ENCODING 103
SWIDTH 611 0
DWIDTH 5 0
BBX 5 6 0 -1
BITMAP
38
58
d8
f0
30
e0
ENDCHAR
STARTCHAR h
ENCODING 104
SWIDTH 611 0
DWIDTH 5 0
BBX 5 6 0 0
BITMAP
60
70
78
58
d0
d0
ENDCHAR
STARTCHAR i
ENCODING 105
SWIDTH 278 0
DWIDTH 2 0
BBX 2 7 0 0
BITMAP
40
00
40
40
40
80
80
ENDCHAR
STARTCHAR j
ENCODING 106
SWIDTH 278 0
DWIDTH 2 0
BBX 3 9 -1 -2
BITMAP
20
00
60
20
20
40
40
80
80
ENDCHAR
STARTCHAR k
ENCODING 107
SWIDTH 556 0
DWIDTH 5 0
BBX 5 6 0 0
BITMAP
60
68
70
60
f0
d8
ENDCHAR
STARTCHAR l
ENCODING 108
SWIDTH 278 0
DWIDTH 2 0
BBX 2 6 0 0
BITMAP
40
40
40
40
80
80
ENDCHAR
STARTCHAR m
ENCODING 109
SWIDTH 889 0
DWIDTH 7 0
BBX 7 5 0 0
BITMAP
74
7e
56
d4
d4
ENDCHAR
STARTCHAR n
ENCODING 110
SWIDTH 611 0
DWIDTH 5 0
BBX 5 5 0 0
BITMAP
70
78
58
d0
d0
ENDCHAR
STARTCHAR o
ENCODING 111
SWIDTH 611 0
DWIDTH 5 0
BBX 5 5 0 0
BITMAP
30
78
d8
f0
60
ENDCHAR
STARTCHAR p
ENCODING 112
SWIDTH 611 0
DWIDTH 5 0
BBX 6 6 -1 -1
BITMAP
38
2c
6c
78
70
c0
ENDCHAR
STARTCHAR q
ENCODING 113
SWIDTH 611 0
DWIDTH 5 0
BBX 5 6 0 -1
BITMAP
38
58
d8
f0
70
30
ENDCHAR
STARTCHAR r
ENCODING 114
SWIDTH 389 0
DWIDTH 3 0
BBX 4 5 0 0
BITMAP
50
70
40
c0
c0
ENDCHAR
STARTCHAR s
ENCODING 115
SWIDTH 556 0
DWIDTH 5 0
BBX 5 5 0 0
BITMAP
38
60
30
b0
60
ENDCHAR
STARTCHAR t
ENCODING 116
SWIDTH 333 0
DWIDTH 3 0
BBX 4 6 0 0
BITMAP
20
f0
60
60
40
60
ENDCHAR
STARTCHAR u
ENCODING 117
SWIDTH 611 0
DWIDTH 5 0
BBX 5 5 0 0
BITMAP
48
48
50
f0
70
ENDCHAR
STARTCHAR v
ENCODING 118
SWIDTH 556 0
DWIDTH 5 0
BBX 4 5 1 0
BITMAP
d0
d0
d0
e0
40
ENDCHAR
STARTCHAR w
ENCODING 119
SWIDTH 778 0
DWIDTH 6 0
BBX 5 5 1 0
BITMAP
a8
a8
e8
f0
a0
ENDCHAR
STARTCHAR x
ENCODING 120
SWIDTH 556 0
DWIDTH 4 0
BBX 6 5 -1 0
BITMAP
2c
38
30
70
d8
ENDCHAR
STARTCHAR y
ENCODING 121
SWIDTH 556 0
DWIDTH 5 0
BBX 5 6 0 -1
BITMAP
68
68
78
30
20
c0
ENDCHAR
STARTCHAR z
ENCODING 122
SWIDTH 500 0
DWIDTH 4 0
BBX 5 5 0 0
BITMAP
78
18
70
c0
f0
ENDCHAR
STARTCHAR braceleft
ENCODING 123
SWIDTH 389 0
DWIDTH 4 0
BBX 5 8 0 -2
BITMAP
18
30
20
c0
60
60
20
20
ENDCHAR
STARTCHAR bar
ENCODING 124
SWIDTH 280 0
DWIDTH 3 0
BBX 3 8 0 -2
BITMAP
20
20
20
40
40
80
80
80
ENDCHAR
STARTCHAR braceright
ENCODING 125
SWIDTH 389 0
DWIDTH 4 0
BBX 5 8 -1 -2
BITMAP
20
20
30
30
18
20
60
c0
ENDCHAR
STARTCHAR asciitilde
ENCODING 126
SWIDTH 584 0
DWIDTH 5 0
BBX 5 2 0 2
BITMAP
68
b0
ENDCHAR
STARTCHAR nobreakspace
ENCODING 160
SWIDTH 278 0
DWIDTH 2 0
BBX 1 1 0 0
BITMAP
00
ENDCHAR
STARTCHAR Aogonek
ENCODING 161
SWIDTH 722 0
DWIDTH 6 0
BBX 6 9 -1 -3
BITMAP
08
18
2c
7c
cc
cc
10
20
30
ENDCHAR
STARTCHAR breve
ENCODING 162
SWIDTH 333 0
DWIDTH 5 0
BBX 4 2 2 6
BITMAP
90
60
ENDCHAR
STARTCHAR Lstroke
ENCODING 163
SWIDTH 611 0
DWIDTH 6 0
BBX 5 8 0 0
BITMAP
30
30
60
f0
60
c0
c0
f8
ENDCHAR
STARTCHAR currency
ENCODING 164
SWIDTH 556 0
DWIDTH 5 0
BBX 5 5 0 1
BITMAP
48
70
50
70
90
ENDCHAR
STARTCHAR Lcaron
ENCODING 165
SWIDTH 840 0
DWIDTH 7 0
BBX 6 7 0 0
BITMAP
04
64
68
60
c0
c0
f0
ENDCHAR
STARTCHAR Sacute
ENCODING 166
SWIDTH 667 0
DWIDTH 6 0
BBX 6 9 0 0
BITMAP
08
10
00
38
6c
70
38
d8
70
ENDCHAR
STARTCHAR section
ENCODING 167
SWIDTH 556 0
DWIDTH 6 0
BBX 6 8 0 -2
BITMAP
18
24
70
58
68
38
90
60
ENDCHAR
STARTCHAR diaeresis
ENCODING 168
SWIDTH 333 0
DWIDTH 3 0
BBX 3 1 2 5
BITMAP
a0
ENDCHAR
STARTCHAR Scaron
ENCODING 169
SWIDTH 667 0
DWIDTH 6 0
BBX 6 9 0 0
BITMAP
28
10
00
38
6c
70
38
d8
70
ENDCHAR
STARTCHAR Scedilla
ENCODING 170
SWIDTH 667 0
DWIDTH 6 0
BBX 6 8 0 -2
BITMAP
38
6c
70
38
d8
70
10
60
ENDCHAR
STARTCHAR Tcaron
ENCODING 171
SWIDTH 611 0
DWIDTH 5 0
BBX 5 9 1 0
BITMAP
50
20
00
f8
60
60
e0
c0
c0
ENDCHAR
STARTCHAR Zacute
ENCODING 172
SWIDTH 611 0
DWIDTH 6 0
BBX 6 9 0 0
BITMAP
08
10
00
7c
0c
38
70
c0
f8
ENDCHAR
STARTCHAR hyphen
ENCODING 173
SWIDTH 333 0
DWIDTH 4 0
BBX 3 1 1 2
BITMAP
e0
ENDCHAR
STARTCHAR Zcaron
ENCODING 174
SWIDTH 611 0
DWIDTH 6 0
BBX 6 9 0 0
BITMAP
28
10
00
7c
0c
38
70
c0
f8
ENDCHAR
STARTCHAR Zabovedot
ENCODING 175
SWIDTH 611 0
DWIDTH 6 0
BBX 6 8 0 0
BITMAP
10
00
7c
0c
38
70
c0
f8
ENDCHAR
STARTCHAR degree
ENCODING 176
SWIDTH 400 0
DWIDTH 3 0
BBX 3 3 1 3
BITMAP
60
a0
c0
ENDCHAR
STARTCHAR aogonek
ENCODING 177
SWIDTH 556 0
DWIDTH 5 0
BBX 5 8 0 -3
BITMAP
70
18
78
d0
f8
10
20
30
ENDCHAR
STARTCHAR ogonek
ENCODING 178
SWIDTH 333 0
DWIDTH 3 0
BBX 2 3 0 -2
BITMAP
40
80
c0
ENDCHAR
STARTCHAR lstroke
ENCODING 179
SWIDTH 278 0
DWIDTH 3 0
BBX 4 8 0 0
BITMAP
30
30
60
f0
60
c0
c0
c0
ENDCHAR
STARTCHAR acute
ENCODING 180
SWIDTH 333 0
DWIDTH 2 0
BBX 2 2 1 5
BITMAP
40
80
ENDCHAR
STARTCHAR lcaron
ENCODING 181
SWIDTH 600 0
DWIDTH 5 0
BBX 5 7 0 0
BITMAP
08
48
50
40
40
80
80
ENDCHAR
STARTCHAR sacute
ENCODING 182
SWIDTH 556 0
DWIDTH 5 0
BBX 5 8 0 0
BITMAP
10
20
00
38
60
30
b0
60
ENDCHAR
STARTCHAR caron
ENCODING 183
SWIDTH 333 0
DWIDTH 4 0
BBX 3 2 2 6
BITMAP
a0
40
ENDCHAR
STARTCHAR cedilla
ENCODING 184
SWIDTH 333 0
DWIDTH 2 0
BBX 3 2 -1 -1
BITMAP
20
c0
ENDCHAR
STARTCHAR scaron
ENCODING 185
SWIDTH 556 0
DWIDTH 5 0
BBX 5 8 0 0
BITMAP
50
20
00
38
60
30
b0
60
ENDCHAR
STARTCHAR scedilla
ENCODING 186
SWIDTH 556 0
DWIDTH 5 0
BBX 5 7 0 -2
BITMAP
38
60
30
b0
60
10
60
ENDCHAR
STARTCHAR tcaron
ENCODING 187
SWIDTH 333 0
DWIDTH 3 0
BBX 4 9 0 0
BITMAP
20
20
40
20
f0
60
60
40
60
ENDCHAR
STARTCHAR zacute
ENCODING 188
SWIDTH 500 0
DWIDTH 4 0
BBX 5 8 0 0
BITMAP
10
20
00
78
18
70
c0
f0
ENDCHAR
STARTCHAR doubleacute
ENCODING 189
SWIDTH 333 0
DWIDTH 5 0
BBX 4 2 2 6
BITMAP
50
a0
ENDCHAR
STARTCHAR zcaron
ENCODING 190
SWIDTH 500 0
DWIDTH 4 0
BBX 5 8 0 0
BITMAP
50
20
00
78
18
70
c0
f0
ENDCHAR
STARTCHAR zabovedot
ENCODING 191
SWIDTH 500 0
DWIDTH 4 0
BBX 5 7 0 0
BITMAP
20
00
78
18
70
c0
f0
ENDCHAR
STARTCHAR Racute
ENCODING 192
SWIDTH 722 0
DWIDTH 6 0
BBX 6 9 0 0
BITMAP
08
10
00
78
64
78
cc
d8
d8
ENDCHAR
STARTCHAR Aacute
ENCODING 193
SWIDTH 722 0
DWIDTH 6 0
BBX 6 9 -1 0
BITMAP
04
08
00
08
18
2c
7c
cc
cc
ENDCHAR
STARTCHAR Acircumflex
ENCODING 194
SWIDTH 722 0
DWIDTH 6 0
BBX 6 9 -1 0
BITMAP
08
14
00
08
18
2c
7c
cc
cc
ENDCHAR
STARTCHAR Abreve
ENCODING 195
SWIDTH 722 0
DWIDTH 6 0
BBX 6 9 -1 0
BITMAP
24
18
00
08
18
2c
7c
cc
cc
ENDCHAR
STARTCHAR Adiaeresis
ENCODING 196
SWIDTH 722 0
DWIDTH 6 0
BBX 6 8 -1 0
BITMAP
14
00
08
18
2c
7c
cc
cc
ENDCHAR
STARTCHAR Lacute
ENCODING 197
SWIDTH 611 0
DWIDTH 5 0
BBX 4 9 0 0
BITMAP
20
40
00
60
60
60
c0
c0
f0
ENDCHAR
STARTCHAR Cacute
ENCODING 198
SWIDTH 722 0
DWIDTH 6 0
BBX 6 9 0 0
BITMAP
08
10
00
3c
6c
c0
c8
d8
70
ENDCHAR
STARTCHAR Ccedilla
ENCODING 199
SWIDTH 722 0
DWIDTH 6 0
BBX 6 8 0 -2
BITMAP
3c
6c
c0
c0
d8
70
20
c0
ENDCHAR
STARTCHAR Ccaron
ENCODING 200
SWIDTH 722 0
DWIDTH 6 0
BBX 6 9 0 0
BITMAP
28
10
00
3c
6c
c0
c8
d8
70
ENDCHAR
STARTCHAR Eacute
ENCODING 201
SWIDTH 667 0
DWIDTH 5 0
BBX 6 9 0 0
BITMAP
08
10
00
7c
60
78
c0
c0
f0
ENDCHAR
STARTCHAR Eogonek
ENCODING 202
SWIDTH 667 0
DWIDTH 5 0
BBX 6 9 0 -3
BITMAP
7c
60
78
c0
c0
f0
10
20
30
ENDCHAR
STARTCHAR Ediaeresis
ENCODING 203
SWIDTH 667 0
DWIDTH 5 0
BBX 6 8 0 0
BITMAP
28
00
7c
60
78
c0
c0
f0
ENDCHAR
STARTCHAR Ecaron
ENCODING 204
SWIDTH 667 0
DWIDTH 5 0
BBX 6 9 0 0
BITMAP
28
10
00
7c
60
78
c0
c0
f0
ENDCHAR
STARTCHAR Iacute
ENCODING 205
SWIDTH 278 0
DWIDTH 2 0
BBX 3 9 0 0
BITMAP
20
40
00
40
40
40
80
80
80
ENDCHAR
STARTCHAR Icircumflex
ENCODING 206
SWIDTH 278 0
DWIDTH 2 0
BBX 3 9 0 0
BITMAP
40
a0
00
40
40
40
80
80
80
ENDCHAR
STARTCHAR Dcaron
ENCODING 207
SWIDTH 722 0
DWIDTH 6 0
BBX 6 9 0 0
BITMAP
28
10
00
78
64
64
cc
d8
f0
ENDCHAR
STARTCHAR Dstroke
ENCODING 208
SWIDTH 722 0
DWIDTH 6 0
BBX 6 6 0 0
BITMAP
78
64
f4
4c
d8
f0
ENDCHAR
STARTCHAR Nacute
ENCODING 209
SWIDTH 722 0
DWIDTH 6 0
BBX 7 9 0 0
BITMAP
08
10
00
66
64
74
f8
c8
c8
ENDCHAR
STARTCHAR Ncaron
ENCODING 210
SWIDTH 722 0
DWIDTH 6 0
BBX 7 9 0 0
BITMAP
28
10
00
66
64
74
f8
c8
c8
ENDCHAR
STARTCHAR Oacute
ENCODING 211
SWIDTH 778 0
DWIDTH 6 0
BBX 6 9 0 0
BITMAP
04
08
00
38
6c
cc
cc
d8
70
ENDCHAR
STARTCHAR Ocircumflex
ENCODING 212
SWIDTH 778 0
DWIDTH 6 0
BBX 6 9 0 0
BITMAP
08
14
00
38
6c
cc
cc
d8
70
ENDCHAR
STARTCHAR Odoubleacute
ENCODING 213
SWIDTH 778 0
DWIDTH 6 0
BBX 6 9 0 0
BITMAP
14
28
00
38
6c
cc
cc
d8
70
ENDCHAR
STARTCHAR Odiaeresis
ENCODING 214
SWIDTH 778 0
DWIDTH 6 0
BBX 6 8 0 0
BITMAP
14
00
38
6c
cc
cc
d8
70
ENDCHAR
STARTCHAR multiply
ENCODING 215
SWIDTH 584 0
DWIDTH 5 0
BBX 5 4 0 1
BITMAP
d8
70
70
d8
ENDCHAR
STARTCHAR Rcaron
ENCODING 216
SWIDTH 722 0
DWIDTH 6 0
BBX 6 9 0 0
BITMAP
28
10
00
78
64
78
cc
d8
d8
ENDCHAR
STARTCHAR Uring
ENCODING 217
SWIDTH 722 0
DWIDTH 6 0
BBX 6 10 0 0
BITMAP
10
28
10
00
6c
6c
cc
cc
d8
70
ENDCHAR
STARTCHAR Uacute
ENCODING 218
SWIDTH 722 0
DWIDTH 6 0
BBX 6 9 0 0
BITMAP
08
10
00
6c
6c
cc
cc
d8
70
ENDCHAR
STARTCHAR Udoubleacute
ENCODING 219
SWIDTH 722 0
DWIDTH 6 0
BBX 6 9 0 0
BITMAP
14
28
00
6c
6c
cc
cc
d8
70
ENDCHAR
STARTCHAR Udiaeresis
ENCODING 220
SWIDTH 722 0
DWIDTH 6 0
BBX 6 8 0 0
BITMAP
28
00
6c
6c
cc
cc
d8
70
ENDCHAR
STARTCHAR Yacute
ENCODING 221
SWIDTH 667 0
DWIDTH 6 0
BBX 6 9 1 0
BITMAP
08
10
00
cc
d8
70
60
60
60
ENDCHAR
STARTCHAR Tcedilla
ENCODING 222
SWIDTH 611 0
DWIDTH 5 0
BBX 5 8 1 -2
BITMAP
f8
60
60
e0
c0
c0
10
60
ENDCHAR
STARTCHAR ssharp
ENCODING 223
SWIDTH 611 0
DWIDTH 6 0
BBX 5 6 0 0
BITMAP
38
28
70
58
d8
b0
ENDCHAR
STARTCHAR racute
ENCODING 224
SWIDTH 389 0
DWIDTH 3 0
BBX 4 8 0 0
BITMAP
10
20
00
50
70
40
c0
c0
ENDCHAR
STARTCHAR aacute
ENCODING 225
SWIDTH 556 0
DWIDTH 5 0
BBX 5 8 0 0
BITMAP
10
20
00
70
18
78
d0
f8
ENDCHAR
STARTCHAR acircumflex
ENCODING 226
SWIDTH 556 0
DWIDTH 5 0
BBX 5 8 0 0
BITMAP
20
50
00
70
18
78
d0
f8
ENDCHAR
STARTCHAR abreve
ENCODING 227
SWIDTH 556 0
DWIDTH 5 0
BBX 5 8 0 0
BITMAP
48
30
00
70
18
78
d0
f8
ENDCHAR
STARTCHAR adiaeresis
ENCODING 228
SWIDTH 556 0
DWIDTH 5 0
BBX 5 7 0 0
BITMAP
50
00
70
18
78
d0
f8
ENDCHAR
STARTCHAR lacute
ENCODING 229
SWIDTH 278 0
DWIDTH 2 0
BBX 3 9 0 0
BITMAP
20
40
00
40
40
40
40
80
80
ENDCHAR
STARTCHAR cacute
ENCODING 230
SWIDTH 556 0
DWIDTH 4 0
BBX 4 8 0 0
BITMAP
10
20
00
30
70
c0
f0
60
ENDCHAR
STARTCHAR ccedilla
ENCODING 231
SWIDTH 556 0
DWIDTH 4 0
BBX 4 7 0 -2
BITMAP
30
70
c0
f0
60
20
c0
ENDCHAR
STARTCHAR ccaron
ENCODING 232
SWIDTH 556 0
DWIDTH 4 0
BBX 4 8 0 0
BITMAP
50
20
00
30
70
c0
f0
60
ENDCHAR
STARTCHAR eacute
ENCODING 233
SWIDTH 556 0
DWIDTH 5 0
BBX 5 8 0 0
BITMAP
08
10
00
30
68
f8
c0
70
ENDCHAR
STARTCHAR eogonek
ENCODING 234
SWIDTH 556 0
DWIDTH 5 0
BBX 5 8 0 -3
BITMAP
30
68
f8
c0
70
10
20
30
ENDCHAR
STARTCHAR ediaeresis
ENCODING 235
SWIDTH 556 0
DWIDTH 5 0
BBX 5 7 0 0
BITMAP
28
00
30
68
f8
c0
70
ENDCHAR
STARTCHAR ecaron
ENCODING 236
SWIDTH 556 0
DWIDTH 5 0
BBX 5 8 0 0
BITMAP
50
20
00
30
68
f8
c0
70
ENDCHAR
STARTCHAR iacute
ENCODING 237
SWIDTH 278 0
DWIDTH 2 0
BBX 3 8 0 0
BITMAP
20
40
00
40
40
40
80
80
ENDCHAR
STARTCHAR icircumflex
ENCODING 238
SWIDTH 278 0
DWIDTH 2 0
BBX 3 8 0 0
BITMAP
40
a0
00
40
40
40
80
80
ENDCHAR
STARTCHAR dcaron
ENCODING 239
SWIDTH 960 0
DWIDTH 8 0
BBX 9 7 0 0
BITMAP
0080
0c80
3900
7800
d800
d000
7000
ENDCHAR
STARTCHAR dstroke
ENCODING 240
SWIDTH 840 0
DWIDTH 7 0
BBX 8 6 0 0
BITMAP
ff
38
78
d8
d0
70
ENDCHAR
STARTCHAR nacute
ENCODING 241
SWIDTH 611 0
DWIDTH 5 0
BBX 5 8 0 0
BITMAP
10
20
00
70
78
58
d0
d0
ENDCHAR
STARTCHAR ncaron
ENCODING 242
SWIDTH 611 0
DWIDTH 5 0
BBX 5 8 0 0
BITMAP
50
20
00
70
78
58
d0
d0
ENDCHAR
STARTCHAR oacute
ENCODING 243
SWIDTH 611 0
DWIDTH 5 0
BBX 5 8 0 0
BITMAP
08
10
00
30
78
d8
f0
60
ENDCHAR
STARTCHAR ocircumflex
ENCODING 244
SWIDTH 611 0
DWIDTH 5 0
BBX 5 8 0 0
BITMAP
10
28
00
30
78
d8
f0
60
ENDCHAR
STARTCHAR odoubleacute
ENCODING 245
SWIDTH 611 0
DWIDTH 5 0
BBX 5 8 0 0
BITMAP
28
50
00
30
78
d8
f0
60
ENDCHAR
STARTCHAR odiaeresis
ENCODING 246
SWIDTH 611 0
DWIDTH 5 0
BBX 5 7 0 0
BITMAP
28
00
30
78
d8
f0
60
ENDCHAR
STARTCHAR division
ENCODING 247
SWIDTH 584 0
DWIDTH 5 0
BBX 4 5 1 0
BITMAP
20
00
f0
00
40
ENDCHAR
STARTCHAR rcaron
ENCODING 248
SWIDTH 389 0
DWIDTH 3 0
BBX 4 8 0 0
BITMAP
50
20
00
50
70
40
c0
c0
ENDCHAR
STARTCHAR uring
ENCODING 249
SWIDTH 611 0
DWIDTH 5 0
BBX 5 9 0 0
BITMAP
20
50
20
00
48
48
50
f0
70
ENDCHAR
STARTCHAR uacute
ENCODING 250
SWIDTH 611 0
DWIDTH 5 0
BBX 5 8 0 0
BITMAP
08
10
00
48
48
50
f0
70
ENDCHAR
STARTCHAR udoubleacute
ENCODING 251
SWIDTH 611 0
DWIDTH 5 0
BBX 5 8 0 0
BITMAP
28
50
00
48
48
50
f0
70
ENDCHAR
STARTCHAR udiaeresis
ENCODING 252
SWIDTH 611 0
DWIDTH 5 0
BBX 5 7 0 0
BITMAP
28
00
48
48
50
f0
70
ENDCHAR
STARTCHAR yacute
ENCODING 253
SWIDTH 556 0
DWIDTH 5 0
BBX 5 9 0 -1
BITMAP
08
10
00
68
68
78
30
20
c0
ENDCHAR
STARTCHAR tcedilla
ENCODING 254
SWIDTH 333 0
DWIDTH 3 0
BBX 4 8 0 -2
BITMAP
20
f0
60
60
40
60
20
c0
ENDCHAR
STARTCHAR abovedot
ENCODING 255
SWIDTH 333 0
DWIDTH 2 0
BBX 1 1 2 7
BITMAP
80
ENDCHAR
ENDFONT
